<mxfile host="Electron" modified="2023-11-19T02:16:44.992Z" agent="Mozilla/5.0 (Windows NT 10.0; WOW64) AppleWebKit/537.36 (KHTML, like Gecko) draw.io/22.0.3 Chrome/114.0.5735.289 Electron/25.8.4 Safari/537.36" etag="wXmz71BhT8W0Wx33sNQd" version="22.0.3" type="device">
  <diagram name="Page-1" id="hCy9UOw9v4zKRksOLVUl">
    <mxGraphModel dx="863" dy="545" grid="1" gridSize="10" guides="1" tooltips="1" connect="1" arrows="1" fold="1" page="1" pageScale="1" pageWidth="850" pageHeight="1100" math="0" shadow="0">
      <root>
        <mxCell id="0" />
        <mxCell id="1" parent="0" />
        <mxCell id="m-PQ7Ic1M54F6vT2B_4p-6" style="edgeStyle=orthogonalEdgeStyle;rounded=0;orthogonalLoop=1;jettySize=auto;html=1;exitX=0.25;exitY=1;exitDx=0;exitDy=0;endArrow=none;endFill=0;" edge="1" parent="1" source="m-PQ7Ic1M54F6vT2B_4p-2">
          <mxGeometry relative="1" as="geometry">
            <mxPoint x="220" y="680" as="targetPoint" />
          </mxGeometry>
        </mxCell>
        <mxCell id="m-PQ7Ic1M54F6vT2B_4p-16" style="edgeStyle=orthogonalEdgeStyle;rounded=0;orthogonalLoop=1;jettySize=auto;html=1;exitX=1;exitY=0.25;exitDx=0;exitDy=0;entryX=0;entryY=0.25;entryDx=0;entryDy=0;" edge="1" parent="1" source="m-PQ7Ic1M54F6vT2B_4p-2" target="m-PQ7Ic1M54F6vT2B_4p-3">
          <mxGeometry relative="1" as="geometry" />
        </mxCell>
        <mxCell id="m-PQ7Ic1M54F6vT2B_4p-18" style="edgeStyle=orthogonalEdgeStyle;rounded=0;orthogonalLoop=1;jettySize=auto;html=1;exitX=0.5;exitY=0;exitDx=0;exitDy=0;" edge="1" parent="1" source="m-PQ7Ic1M54F6vT2B_4p-2">
          <mxGeometry relative="1" as="geometry">
            <mxPoint x="290.3333333333335" y="100" as="targetPoint" />
          </mxGeometry>
        </mxCell>
        <mxCell id="m-PQ7Ic1M54F6vT2B_4p-2" value="&lt;h1&gt;DP&lt;/h1&gt;" style="rounded=0;whiteSpace=wrap;html=1;" vertex="1" parent="1">
          <mxGeometry x="150" y="180" width="280" height="390" as="geometry" />
        </mxCell>
        <mxCell id="m-PQ7Ic1M54F6vT2B_4p-7" style="edgeStyle=orthogonalEdgeStyle;rounded=0;orthogonalLoop=1;jettySize=auto;html=1;exitX=0.25;exitY=1;exitDx=0;exitDy=0;endArrow=none;endFill=0;" edge="1" parent="1" source="m-PQ7Ic1M54F6vT2B_4p-3">
          <mxGeometry relative="1" as="geometry">
            <mxPoint x="590" y="680" as="targetPoint" />
          </mxGeometry>
        </mxCell>
        <mxCell id="m-PQ7Ic1M54F6vT2B_4p-12" style="edgeStyle=orthogonalEdgeStyle;rounded=0;orthogonalLoop=1;jettySize=auto;html=1;exitX=0;exitY=0.75;exitDx=0;exitDy=0;entryX=1;entryY=0.75;entryDx=0;entryDy=0;" edge="1" parent="1" source="m-PQ7Ic1M54F6vT2B_4p-3" target="m-PQ7Ic1M54F6vT2B_4p-2">
          <mxGeometry relative="1" as="geometry" />
        </mxCell>
        <mxCell id="m-PQ7Ic1M54F6vT2B_4p-14" style="edgeStyle=orthogonalEdgeStyle;rounded=0;orthogonalLoop=1;jettySize=auto;html=1;exitX=0;exitY=0.5;exitDx=0;exitDy=0;entryX=1;entryY=0.5;entryDx=0;entryDy=0;" edge="1" parent="1" source="m-PQ7Ic1M54F6vT2B_4p-3" target="m-PQ7Ic1M54F6vT2B_4p-2">
          <mxGeometry relative="1" as="geometry" />
        </mxCell>
        <mxCell id="m-PQ7Ic1M54F6vT2B_4p-3" value="&lt;h1&gt;CU&lt;/h1&gt;" style="rounded=0;whiteSpace=wrap;html=1;" vertex="1" parent="1">
          <mxGeometry x="520" y="180" width="280" height="390" as="geometry" />
        </mxCell>
        <mxCell id="m-PQ7Ic1M54F6vT2B_4p-8" style="edgeStyle=orthogonalEdgeStyle;rounded=0;orthogonalLoop=1;jettySize=auto;html=1;exitX=0.25;exitY=1;exitDx=0;exitDy=0;endArrow=none;endFill=0;" edge="1" parent="1">
          <mxGeometry relative="1" as="geometry">
            <mxPoint x="250" y="680" as="targetPoint" />
            <mxPoint x="250" y="570" as="sourcePoint" />
          </mxGeometry>
        </mxCell>
        <mxCell id="m-PQ7Ic1M54F6vT2B_4p-9" style="edgeStyle=orthogonalEdgeStyle;rounded=0;orthogonalLoop=1;jettySize=auto;html=1;exitX=0.25;exitY=1;exitDx=0;exitDy=0;endArrow=none;endFill=0;" edge="1" parent="1">
          <mxGeometry relative="1" as="geometry">
            <mxPoint x="620" y="680" as="targetPoint" />
            <mxPoint x="620" y="570" as="sourcePoint" />
          </mxGeometry>
        </mxCell>
        <mxCell id="m-PQ7Ic1M54F6vT2B_4p-10" value="" style="endArrow=none;html=1;rounded=0;" edge="1" parent="1">
          <mxGeometry width="50" height="50" relative="1" as="geometry">
            <mxPoint x="120" y="680" as="sourcePoint" />
            <mxPoint x="620" y="680" as="targetPoint" />
          </mxGeometry>
        </mxCell>
        <mxCell id="m-PQ7Ic1M54F6vT2B_4p-11" value="clk, rst" style="text;html=1;align=center;verticalAlign=middle;resizable=0;points=[];autosize=1;strokeColor=none;fillColor=none;" vertex="1" parent="1">
          <mxGeometry x="90" y="648" width="60" height="30" as="geometry" />
        </mxCell>
        <mxCell id="m-PQ7Ic1M54F6vT2B_4p-13" value="ldX, ldTmp" style="text;html=1;align=center;verticalAlign=middle;resizable=0;points=[];autosize=1;strokeColor=none;fillColor=none;" vertex="1" parent="1">
          <mxGeometry x="430" y="438" width="80" height="30" as="geometry" />
        </mxCell>
        <mxCell id="m-PQ7Ic1M54F6vT2B_4p-15" value="selTmp" style="text;html=1;align=center;verticalAlign=middle;resizable=0;points=[];autosize=1;strokeColor=none;fillColor=none;" vertex="1" parent="1">
          <mxGeometry x="440" y="348" width="60" height="30" as="geometry" />
        </mxCell>
        <mxCell id="m-PQ7Ic1M54F6vT2B_4p-17" value="done" style="text;html=1;align=center;verticalAlign=middle;resizable=0;points=[];autosize=1;strokeColor=none;fillColor=none;" vertex="1" parent="1">
          <mxGeometry x="455" y="238" width="50" height="30" as="geometry" />
        </mxCell>
        <mxCell id="m-PQ7Ic1M54F6vT2B_4p-19" value="output" style="text;html=1;align=center;verticalAlign=middle;resizable=0;points=[];autosize=1;strokeColor=none;fillColor=none;" vertex="1" parent="1">
          <mxGeometry x="260" y="68" width="60" height="30" as="geometry" />
        </mxCell>
        <mxCell id="m-PQ7Ic1M54F6vT2B_4p-21" value="" style="endArrow=classic;html=1;rounded=0;entryX=1.015;entryY=0.227;entryDx=0;entryDy=0;entryPerimeter=0;" edge="1" parent="1">
          <mxGeometry width="50" height="50" relative="1" as="geometry">
            <mxPoint x="865.8" y="281.47" as="sourcePoint" />
            <mxPoint x="800" y="280" as="targetPoint" />
          </mxGeometry>
        </mxCell>
        <mxCell id="m-PQ7Ic1M54F6vT2B_4p-22" value="start" style="text;html=1;align=center;verticalAlign=middle;resizable=0;points=[];autosize=1;strokeColor=none;fillColor=none;" vertex="1" parent="1">
          <mxGeometry x="855" y="268" width="50" height="30" as="geometry" />
        </mxCell>
      </root>
    </mxGraphModel>
  </diagram>
</mxfile>
